# xmcd
#
# Track frame offsets:
#        150
#        24157
#        45404
#        63679
#        85027
#        102064
#        119576
#        137865
#        156442
#        173295
#
# Disc length: 2563 seconds
#
# Revision: 1
# Processed by: cddbd v1.5.2PL0 Copyright (c) Steve Scherf et al.
# Submitted via: ExactAudioCopy v0.95b2
#
DISCID=770a010a
DTITLE=Life, Birth, Blue, Grass: The Bluegrass Tribute to Black Label
DTITLE=Society
DYEAR=2006
DGENRE=Bluegrass
TTITLE0=Losin' Your Mind
TTITLE1=Dirt on the Grave
TTITLE2=Between Heaven and Hell
TTITLE3=Love Reign Down
TTITLE4=Yesterday, Today and Tomorrow
TTITLE5=In This River
TTITLE6=Bleed for Me
TTITLE7=Beneath the Tree
TTITLE8=Lost Heaven
TTITLE9=Blackened Waters
EXTD=
EXTT0=
EXTT1=
EXTT2=
EXTT3=
EXTT4=
EXTT5=
EXTT6=
EXTT7=
EXTT8=
EXTT9=
PLAYORDER=
